<svg id="Layer_1" data-name="Layer 1" xmlns="http://www.w3.org/2000/svg" viewBox="0 0 100 100">
  <path d="M41.46143,78.46777,72.5379,54.92419,50,100,39.34265,78.68524ZM25.62714,51.25433,38.40985,41.57V22.163c0-4.20758,2.30481-7.63086,5.13776-7.63086h12.905c2.83288,0,5.13757,3.42328,5.13757,7.63086v1.84552l13.91223-10.54A30.598,30.598,0,0,0,50.00006,0h-.00012A30.90166,30.90166,0,0,0,22.36066,44.72131Zm15.2633,25.764L13.99927,79.77954,23.829,54.498l56.842-43.0636L97.73254,33.95477ZM38.898,72.56421l3.12286-2.36585L30.70032,55.2558l-3.12281,2.36584Z" fill="#231f20"/>
</svg>
