<svg id="Layer_1" data-name="Layer 1" xmlns="http://www.w3.org/2000/svg" viewBox="0 0 100 100">
  <path d="M48.89606,51.72308a20.12747,20.12747,0,0,1-2.13941,10.002L28.60779,98.023,10.45892,61.7251A20.291,20.291,0,0,1,28.60773,32.35962h.00012a20.15,20.15,0,0,1,9.42425,2.30267A25.06061,25.06061,0,0,0,48.89606,51.72308Zm42.81341-24.686A25.06006,25.06006,0,1,1,66.64941,1.97705,25.06,25.06,0,0,1,91.70947,27.03711Zm-5.16095,6.68805V20.349H73.33746V7.138H59.96136V20.349h-13.211V33.72516H59.96136v13.211h13.3761v-13.211Z" fill="#231f20"/>
</svg>
