<svg id="Layer_3" data-name="Layer 3" xmlns="http://www.w3.org/2000/svg" viewBox="0 0 99.9 100">
  <rect x="2" y="42.2" width="95.9" height="55.7" fill="#9e1d20"/>
  <polygon points="36.121 88.623 27 78.7 36.533 75.217 48.7 78.8 36.121 88.623" fill="#231f20"/>
  <path d="M84.78125-.11469l-16.5,16h-37.2l-15.8-16-15.2,16v84h99.9v-84Zm-80.7,95.9v-17.1h23.4l10.8-35.4,10.5,35.4h47.2v17.2h-91.9Z" transform="translate(-0.08125 0.11469)" fill="#231f20"/>
  <path d="M18.6388,43.78532a34.38868,34.38868,0,0,1,.24277,3.525c0,5.43437-1.69937,9.84062-3.76288,9.84062s-3.76288-4.40625-3.76288-9.84062a34.38887,34.38887,0,0,1,.24277-3.525H.31s7.8899,17.47812,19.4213,17.47812,19.4213-17.47812,19.4213-17.47812Z" transform="translate(-0.08125 0.11469)" fill="#fff"/>
  <path d="M64.437,43.78532a34.38585,34.38585,0,0,1,.24277,3.525c0,5.43437-1.69936,9.84062-3.76288,9.84062S57.154,52.74469,57.154,47.31032a34.38885,34.38885,0,0,1,.24276-3.525H46.10811S53.998,61.26344,65.52941,61.26344,84.95072,43.78532,84.95072,43.78532Z" transform="translate(-0.08125 0.11469)" fill="#fff"/>
  <line x1="77.29675" y1="66.6173" x2="93.99675" y2="58.1173" fill="none" stroke="#fff" stroke-miterlimit="10" stroke-width="3"/>
  <line x1="77.29675" y1="76.21731" x2="95.9" y2="74.21731" fill="none" stroke="#fff" stroke-miterlimit="10" stroke-width="3"/>
  <line x1="8.60325" y1="66.56053" x2="1.25608" y2="63.66899" fill="none" stroke="#fff" stroke-miterlimit="10" stroke-width="3"/>
  <line x1="93.99675" y1="91.99542" x2="78.01947" y2="85.25" fill="none" stroke="#fff" stroke-miterlimit="10" stroke-width="3"/>
  <line x1="8.64168" y1="77.68247" x2="1.21765" y2="77.48465" fill="none" stroke="#fff" stroke-miterlimit="10" stroke-width="3"/>
  <line x1="9.36228" y1="89.94496" x2="1.93825" y2="92.89798" fill="none" stroke="#fff" stroke-miterlimit="10" stroke-width="3"/>
</svg>
